<?xml version="1.0" standalone="no"?>
<!DOCTYPE svg PUBLIC "-//W3C//DTD SVG 20010904//EN"
 "http://www.w3.org/TR/2001/REC-SVG-20010904/DTD/svg10.dtd">
<svg version="1.0" xmlns="http://www.w3.org/2000/svg"
 width="1022.000000pt" height="480.000000pt" viewBox="0 0 1022.000000 480.000000"
 preserveAspectRatio="xMidYMid meet">

<g transform="translate(0.000000,480.000000) scale(0.100000,-0.100000)"
fill="#000000" stroke="none">
<path d="M0 2400 l0 -2400 5110 0 5110 0 0 2400 0 2400 -5110 0 -5110 0 0
-2400z m4733 1094 c47 -33 77 -82 209 -334 82 -155 130 -241 133 -238 2 2 22
75 44 163 58 222 75 265 131 331 73 85 122 94 541 94 l344 0 -3 -112 c-2 -73
-8 -115 -15 -120 -9 -6 -8 -8 3 -10 8 -1 -120 -5 -285 -8 -402 -7 -371 14
-470 -315 -31 -104 -63 -214 -72 -244 -23 -85 -50 -134 -87 -159 -64 -43 -156
-38 -212 11 -21 18 -194 305 -194 321 0 4 -10 23 -23 44 -13 20 -37 62 -54 92
-72 133 -95 170 -103 165 -8 -5 -40 -60 -98 -165 -13 -25 -41 -74 -60 -110
-72 -128 -92 -166 -122 -226 -33 -67 -89 -130 -127 -145 -37 -14 -121 -11
-154 6 -55 29 -86 101 -150 345 -11 41 -23 86 -28 100 -23 69 -86 289 -115
400 -13 47 -26 95 -30 108 l-7 22 148 0 149 0 37 -147 c21 -82 44 -170 52
-198 7 -27 26 -98 41 -157 15 -60 31 -108 35 -108 3 0 16 21 28 48 11 26 43
88 69 137 27 50 70 133 97 185 112 219 156 263 258 256 33 -2 61 -12 90 -32z
m1751 -6 c-10 -13 -21 -25 -24 -28 -3 -3 -26 -32 -52 -66 -102 -132 -104 -134
-174 -134 l-62 0 -1 125 -2 125 167 0 167 0 -19 -22z m-569 -327 c353 -9 382
-12 460 -47 64 -29 98 -62 132 -127 23 -45 27 -64 27 -142 0 -124 -32 -182
-139 -254 -100 -67 -82 -65 -614 -69 l-483 -3 33 43 c19 24 38 48 44 54 5 6
30 39 55 72 25 34 52 64 60 68 8 3 180 9 381 13 401 7 399 6 399 67 0 66 -40
76 -295 70 -146 -4 -334 4 -507 20 -67 7 -68 7 -62 33 19 85 61 200 79 214 5
4 30 5 55 2 25 -3 194 -10 375 -14z m630 -816 c0 -20 -8 -20 -1439 -23 -1063
-1 -1442 1 -1453 9 -10 9 -10 15 -2 25 10 12 242 14 1453 12 1433 -3 1441 -3
1441 -23z m-2562 -147 c3 -18 14 -87 23 -153 9 -66 20 -123 23 -127 4 -4 19
65 35 153 29 159 29 160 55 157 24 -3 26 -8 55 -165 16 -90 31 -161 32 -160 2
2 13 66 24 142 29 193 26 185 55 185 14 0 25 -3 25 -7 0 -5 -17 -113 -37 -241
l-37 -233 -26 3 c-24 3 -26 9 -56 163 -18 88 -33 162 -34 165 -1 3 -16 -69
-34 -160 -32 -160 -33 -165 -58 -168 -31 -4 -26 -21 -68 243 -16 105 -32 200
-35 213 -5 19 -1 22 24 22 25 0 30 -5 34 -32z m697 -42 l0 -74 28 10 c16 6 41
8 56 4 44 -11 58 -60 54 -187 -3 -98 -5 -110 -27 -133 -26 -27 -59 -33 -92
-16 -13 7 -19 7 -19 0 0 -5 -16 -10 -35 -10 l-35 0 0 240 0 240 35 0 35 0 0
-74z m-155 -81 c14 -13 25 -34 25 -47 0 -13 3 -40 6 -60 l7 -38 -72 0 -71 0 0
-54 c0 -57 15 -80 47 -74 12 2 20 15 23 38 4 29 10 36 33 38 26 3 27 1 27 -38
0 -30 -6 -47 -25 -65 -41 -42 -131 -29 -154 22 -14 31 -14 225 0 257 23 50
113 63 154 21z m496 -4 c34 -35 37 -56 9 -71 -18 -10 -22 -7 -31 19 -13 38
-54 44 -64 10 -6 -17 5 -34 53 -83 34 -33 64 -73 68 -89 21 -86 -84 -141 -155
-81 -29 24 -44 74 -22 74 5 0 15 2 23 5 8 3 18 -6 25 -26 10 -25 16 -30 40
-27 22 2 29 9 31 29 2 21 -8 36 -52 75 -65 58 -81 93 -66 139 20 60 93 73 141
26z m149 20 c0 -5 12 -5 28 1 45 17 81 3 99 -39 23 -57 15 -232 -13 -270 -23
-31 -62 -40 -94 -23 -19 10 -20 8 -20 -55 l0 -65 -35 0 -35 0 0 230 0 230 35
0 c19 0 35 -4 35 -9z m365 -16 c23 -22 25 -31 25 -122 0 -54 3 -122 6 -150 l7
-53 -32 0 c-25 0 -31 4 -31 21 l0 20 -26 -20 c-58 -45 -114 -13 -114 65 0 38
5 51 31 75 16 15 46 34 65 41 33 12 35 15 32 53 -3 34 -7 41 -27 43 -26 4 -41
-12 -41 -45 0 -19 -6 -23 -30 -23 -27 0 -30 3 -30 31 0 76 110 119 165 64z
m250 0 c19 -18 25 -35 25 -65 0 -39 -1 -41 -27 -38 -23 2 -29 9 -33 38 -4 27
-10 36 -29 38 -13 2 -28 -2 -32 -10 -5 -7 -9 -58 -9 -113 0 -55 4 -106 9 -113
4 -8 19 -12 32 -10 20 2 25 10 29 43 4 35 8 40 34 43 l29 4 -5 -53 c-4 -39
-11 -58 -28 -71 -42 -34 -128 -18 -149 29 -6 13 -11 71 -11 129 0 141 18 173
98 174 32 0 49 -6 67 -25z m240 0 c14 -13 25 -34 25 -47 0 -13 3 -40 6 -60 l7
-38 -72 0 -71 0 0 -54 c0 -57 15 -80 47 -74 12 2 20 15 23 38 4 29 10 36 33
38 26 3 27 1 27 -38 0 -30 -6 -47 -25 -65 -41 -42 -131 -29 -154 22 -14 31
-14 225 0 257 23 50 113 63 154 21z m226 -4 c34 -35 37 -56 9 -71 -18 -10 -22
-7 -31 19 -13 38 -54 44 -64 10 -6 -17 5 -34 53 -83 34 -33 64 -73 68 -89 21
-86 -84 -141 -155 -81 -29 24 -44 74 -22 74 5 0 15 2 23 5 8 3 18 -6 25 -26
10 -25 16 -30 40 -27 22 2 29 9 31 29 2 21 -8 36 -52 75 -65 58 -81 93 -66
139 20 60 93 73 141 26z m294 -616 c0 -20 -8 -20 -1439 -23 -1063 -1 -1442 1
-1453 9 -10 9 -10 15 -2 25 10 12 242 14 1453 12 1433 -3 1441 -3 1441 -23z"/>
<path d="M4684 2037 c-2 -7 -3 -62 -2 -123 l3 -109 27 -3 c37 -4 48 25 48 123
0 94 -11 125 -45 125 -14 0 -28 -6 -31 -13z"/>
<path d="M4426 2035 c-3 -9 -6 -30 -6 -46 0 -27 3 -29 36 -29 l35 0 -3 43 c-3
37 -6 42 -29 45 -17 2 -29 -3 -33 -13z"/>
<path d="M5175 2038 c-3 -8 -4 -63 -3 -124 l3 -109 30 0 c36 0 43 20 43 120 0
96 -8 119 -41 123 -16 2 -29 -2 -32 -10z"/>
<path d="M5456 1895 c-26 -24 -32 -48 -20 -79 7 -19 35 -21 52 -4 14 14 17
108 3 108 -4 0 -20 -11 -35 -25z"/>
<path d="M5926 2035 c-3 -9 -6 -30 -6 -46 0 -27 3 -29 36 -29 l35 0 -3 43 c-3
37 -6 42 -29 45 -17 2 -29 -3 -33 -13z"/>
</g>
</svg>
